<?xml version="1.0" encoding="UTF-8" standalone="no"?>
<!-- Created with Inkscape (http://www.inkscape.org/) -->

<svg
   width="1024"
   height="1024"
   viewBox="0 0 1024 1024"
   version="1.1"
   id="svg1"
   inkscape:version="1.4.2 (ebf0e940, 2025-05-08)"
   xml:space="preserve"
   sodipodi:docname="icon.svg"
   inkscape:export-filename="icon.png"
   inkscape:export-xdpi="144"
   inkscape:export-ydpi="144"
   xmlns:inkscape="http://www.inkscape.org/namespaces/inkscape"
   xmlns:sodipodi="http://sodipodi.sourceforge.net/DTD/sodipodi-0.dtd"
   xmlns="http://www.w3.org/2000/svg"
   xmlns:svg="http://www.w3.org/2000/svg"><sodipodi:namedview
     id="namedview1"
     pagecolor="#d1d1d1"
     bordercolor="#000000"
     borderopacity="0.25"
     inkscape:showpageshadow="false"
     inkscape:pageopacity="0.0"
     inkscape:pagecheckerboard="0"
     inkscape:deskcolor="#d1d1d1"
     inkscape:document-units="px"
     showborder="false"
     inkscape:zoom="0.82109375"
     inkscape:cx="639.39106"
     inkscape:cy="640"
     inkscape:window-width="2056"
     inkscape:window-height="1257"
     inkscape:window-x="0"
     inkscape:window-y="44"
     inkscape:window-maximized="1"
     inkscape:current-layer="layer1"
     showgrid="false"><inkscape:grid
       id="grid1"
       units="px"
       originx="-2.3597982e-05"
       originy="7.6936994e-06"
       spacingx="10"
       spacingy="10"
       empcolor="#0099e5"
       empopacity="0.30196078"
       color="#0099e5"
       opacity="0.14901961"
       empspacing="10"
       enabled="true"
       visible="false" /></sodipodi:namedview><defs
     id="defs1" /><g
     inkscape:label="Layer 1"
     inkscape:groupmode="layer"
     id="layer1"
     transform="translate(-2.3597982e-5)"><rect
       style="fill:#bbdefb;stroke-width:20.48;stroke-opacity:0.996078"
       id="rect2"
       width="1024"
       height="1023.9999"
       x="2.3597982e-05"
       y="6.1035156e-05"
       ry="175.84351" /><g
       id="g5"
       transform="matrix(0.82872884,0.82872884,-0.82872884,0.82872884,534.9033,-289.80155)"
       style="fill:#000000"><g
         id="g6"
         transform="matrix(1.010666,0,0,1.010666,-5.012426,-5.307204)"><path
           id="path1"
           style="fill:#000000;fill-opacity:1;stroke:none;stroke-width:1.038;stroke-dasharray:none"
           d="M 500,63.439453 A 160.60582,161.87041 0 0 0 339.39453,225.30859 160.60582,161.87041 0 0 0 479.96289,385.91406 l -17.75,492.15039 c -0.80311,22.2688 17.93938,40.22266 40.22266,40.22266 22.28328,0 41.02576,-17.95386 40.22265,-40.22266 L 524.88477,385.22461 A 160.60582,161.87041 0 0 0 660.60547,225.30859 160.60582,161.87041 0 0 0 500,63.439453 Z m 0,58.999997 A 102.0667,102.87041 0 0 1 602.06641,225.30859 102.0667,102.87041 0 0 1 500,328.17969 102.0667,102.87041 0 0 1 397.93359,225.30859 102.0667,102.87041 0 0 1 500,122.43945 Z" /><ellipse
           style="fill:none;fill-opacity:0.363985;stroke:#ff0200;stroke-width:20;stroke-dasharray:none;stroke-opacity:0.996078"
           id="ellipse1"
           cx="500"
           cy="225.30923"
           rx="130.84013"
           ry="131.87041" /><path
           id="path2"
           style="fill:#000000;fill-opacity:1;stroke:none;stroke-width:1.038;stroke-dasharray:none"
           d="M 36.549303,528.38319 A 161.87041,160.60582 0 0 0 198.41844,688.98866 161.87041,160.60582 0 0 0 359.02391,548.4203 l 492.15039,17.75 c 22.2688,0.80311 40.22266,-17.93938 40.22266,-40.22266 0,-22.28328 -17.95386,-41.02576 -40.22266,-40.22265 L 358.33446,503.49842 A 161.87041,160.60582 0 0 0 198.41844,367.77772 161.87041,160.60582 0 0 0 36.549303,528.38319 Z m 58.999997,0 A 102.87041,102.0667 0 0 1 198.41844,426.31678 102.87041,102.0667 0 0 1 301.28954,528.38319 102.87041,102.0667 0 0 1 198.41844,630.4496 102.87041,102.0667 0 0 1 95.5493,528.38319 Z" /><ellipse
           style="fill:none;fill-opacity:0.363985;stroke:#ff0200;stroke-width:20;stroke-dasharray:none;stroke-opacity:0.996078"
           id="ellipse2"
           cx="-528.38318"
           cy="198.41908"
           rx="130.84013"
           ry="131.87041"
           transform="rotate(-90)" /></g><rect
         style="fill:none;stroke-width:20;stroke-opacity:0.996078"
         id="rect1"
         width="1000"
         height="1000"
         x="-519.54205"
         y="184.13127"
         transform="rotate(-45)"
         ry="40.222527" /></g></g></svg>
